<svg width="52.241211" height="52.151855" viewBox="0 0 52.2412 52.1519" fill="none" xmlns="http://www.w3.org/2000/svg" xmlns:xlink="http://www.w3.org/1999/xlink">
	<desc>
			Created with Pixso.
	</desc>
	<defs/>
	<path id="path" d="M24.05 24.91L48.1 0.85C49.24 -0.13 50.34 -0.09 51.41 0.98C52.47 2.04 52.51 3.14 51.53 4.29L29.48 26.38L50.9 47.84C52.04 48.98 52.04 50.13 50.9 51.27C49.75 52.44 48.6 52.44 47.44 51.27L24.05 27.84C23.08 26.87 23.08 25.89 24.05 24.91Z" fill="#FFFCFC" fill-opacity="1.000000" fill-rule="nonzero"/>
	<path id="path" d="M0.72 24.91L24.78 0.85C25.24 0.31 25.82 0.02 26.53 0C27.24 -0.03 27.85 0.21 28.35 0.71C28.85 1.21 29.09 1.82 29.06 2.53C29.03 3.24 28.75 3.82 28.21 4.29L6.15 26.38L27.58 47.84C28.71 48.98 28.71 50.13 27.58 51.27C26.43 52.41 25.29 52.41 24.14 51.27L0.72 27.84C-0.25 26.87 -0.25 25.89 0.72 24.91Z" fill="#FFFCFC" fill-opacity="1.000000" fill-rule="nonzero"/>
</svg>
