<svg width="42.642822" height="46.000000" viewBox="0 0 42.6428 46" fill="none" xmlns="http://www.w3.org/2000/svg" xmlns:xlink="http://www.w3.org/1999/xlink">
	<desc>
			Created with Pixso.
	</desc>
	<defs/>
	<path id="path" d="M39.09 4.31L33.31 4.31L33.31 1.43C33.31 0.64 32.71 0 31.98 0C31.24 0 30.64 0.64 30.64 1.43L30.64 4.31L22.65 4.31L22.65 1.43C22.65 0.64 22.05 0 21.32 0C20.58 0 19.98 0.64 19.98 1.43L19.98 4.31L11.99 4.31L11.99 1.43C11.99 0.64 11.39 0 10.66 0C9.92 0 9.32 0.64 9.32 1.43L9.32 4.31L3.55 4.31C1.59 4.31 0 6.02 0 8.14L0 42.16C0 44.28 1.59 46 3.55 46L39.09 46C41.05 46 42.64 44.28 42.64 42.16L42.64 8.14C42.64 6.02 41.05 4.31 39.09 4.31ZM39.97 42.16C39.97 42.69 39.57 43.12 39.09 43.12L3.55 43.12C3.06 43.12 2.66 42.69 2.66 42.16L2.66 8.14C2.66 7.61 3.06 7.18 3.55 7.18L9.32 7.18L9.32 10.06C9.32 10.85 9.92 11.5 10.66 11.5C11.39 11.5 11.99 10.85 11.99 10.06L11.99 7.18L19.98 7.18L19.98 10.06C19.98 10.85 20.58 11.5 21.32 11.5C22.05 11.5 22.65 10.85 22.65 10.06L22.65 7.18L30.64 7.18L30.64 10.06C30.64 10.85 31.24 11.5 31.98 11.5C32.71 11.5 33.31 10.85 33.31 10.06L33.31 7.18L39.09 7.18C39.57 7.18 39.97 7.61 39.97 8.14L39.97 42.16Z" fill="#333332" fill-opacity="1.000000" fill-rule="nonzero"/>
	<rect id="rect" x="9.328369" y="17.250000" width="5.330350" height="4.312500" fill="#333332" fill-opacity="1.000000"/>
	<rect id="rect" x="9.328369" y="24.437500" width="5.330350" height="4.312500" fill="#333332" fill-opacity="1.000000"/>
	<rect id="rect" x="9.328369" y="31.625000" width="5.330350" height="4.312500" fill="#333332" fill-opacity="1.000000"/>
	<rect id="rect" x="18.656494" y="31.625000" width="5.330350" height="4.312500" fill="#333332" fill-opacity="1.000000"/>
	<rect id="rect" x="18.656494" y="24.437500" width="5.330350" height="4.312500" fill="#333332" fill-opacity="1.000000"/>
	<rect id="rect" x="18.656494" y="17.250000" width="5.330350" height="4.312500" fill="#333332" fill-opacity="1.000000"/>
	<rect id="rect" x="27.984375" y="31.625000" width="5.330350" height="4.312500" fill="#333332" fill-opacity="1.000000"/>
	<rect id="rect" x="27.984375" y="24.437500" width="5.330350" height="4.312500" fill="#333332" fill-opacity="1.000000"/>
	<rect id="rect" x="27.984375" y="17.250000" width="5.330350" height="4.312500" fill="#333332" fill-opacity="1.000000"/>
</svg>
