<svg width="33.338867" height="35.162109" viewBox="0 0 33.3389 35.1621" fill="none" xmlns="http://www.w3.org/2000/svg" xmlns:xlink="http://www.w3.org/1999/xlink">
	<desc>
			Created with Pixso.
	</desc>
	<defs/>
	<path id="path" d="M17.45 18.97L32.88 2.78C33.51 2.01 33.48 1.27 32.8 0.55C32.12 -0.16 31.41 -0.19 30.68 0.47L16.52 15.31L2.76 0.89C2.02 0.13 1.29 0.13 0.55 0.89C-0.19 1.67 -0.19 2.44 0.55 3.22L15.58 18.97C16.2 19.62 16.83 19.62 17.45 18.97Z" fill="#231F20" fill-opacity="1.000000" fill-rule="nonzero"/>
	<path id="path" d="M17.45 34.67L32.88 18.48C33.51 17.71 33.48 16.97 32.8 16.25C32.12 15.54 31.41 15.51 30.68 16.17L16.52 31.01L2.76 16.59C2.02 15.83 1.29 15.83 0.55 16.59C-0.18 17.36 -0.18 18.13 0.55 18.9L15.58 34.67C16.2 35.32 16.83 35.32 17.45 34.67Z" fill="#231F20" fill-opacity="1.000000" fill-rule="nonzero"/>
</svg>
