<svg class="hidden">

<!-- user account logo -->
  <symbol id="user" width="40.816162" height="44.667938" viewBox="0 0 40.8162 44.6679"  xmlns="http://www.w3.org/2000/svg" xmlns:xlink="http://www.w3.org/1999/xlink">
	<path id="path" d="M10.99 14.52C10.99 14.56 10.99 14.58 10.99 14.6C10.99 14.72 11.03 14.85 11.08 14.96L11.49 17.06C12.33 21.27 16.08 24.31 20.42 24.31C24.76 24.31 28.51 21.25 29.35 17.04L30.61 10.64C30.99 7.96 30.17 5.24 28.34 3.19C26.5 1.17 23.89 0 21.15 0L19.66 0C16.92 0 14.29 1.17 12.48 3.21C10.67 5.25 9.85 7.98 10.23 10.72L10.99 14.52ZM20.4 22.54C16.92 22.54 13.92 20.09 13.26 16.73L12.82 14.43C12.95 13.33 13.56 10.77 15.09 9.85C16 9.3 17.25 9.36 18.8 10C22.62 11.62 25.58 11.64 27.5 11.32C28.49 12.35 28.14 13.79 28.04 14.08C28.02 14.15 28.01 14.3 28.01 14.39C28.01 14.41 28.01 14.41 28.01 14.43L27.56 16.75C26.89 20.09 23.89 22.54 20.4 22.54ZM13.84 4.39C15.31 2.74 17.42 1.78 19.66 1.78L21.15 1.78C23.36 1.78 25.49 2.74 26.96 4.39C28.38 5.97 29.03 8.07 28.83 10.13C28.68 9.96 28.51 9.81 28.32 9.67C28.12 9.5 27.84 9.45 27.58 9.5C25.94 9.85 23.2 9.93 19.51 8.36C17.38 7.48 15.57 7.46 14.14 8.33C13.19 8.9 12.54 9.78 12.07 10.7L12.02 10.42C11.72 8.25 12.39 6.05 13.84 4.39Z" fill-rule="nonzero"/>
	<path id="path" d="M40.79 43.56L38.11 31.09C37.88 30.06 37.12 29.2 36.11 28.85L28.25 26.09C27.91 25.98 27.56 26.05 27.32 26.29L20.4 33.11L13.49 26.29C13.25 26.05 12.87 25.96 12.56 26.09L4.69 28.85C3.68 29.2 2.92 30.06 2.7 31.09L0.01 43.58C-0.04 43.84 0.03 44.11 0.2 44.33C0.37 44.53 0.63 44.66 0.91 44.66L39.93 44.66C40.21 44.66 40.45 44.53 40.64 44.33C40.79 44.11 40.85 43.84 40.79 43.56ZM2.01 42.86L4.47 31.46C4.56 31.02 4.88 30.67 5.29 30.52L12.61 27.95L19.75 34.99C20.1 35.34 20.68 35.34 21.04 34.99L28.17 27.95L35.5 30.52C35.93 30.67 36.22 31.02 36.34 31.46L38.8 42.86L2.01 42.86Z" fill-rule="nonzero"/>
  </symbol>

	<!-- arrow in circle (section project)-->
  <symbol id="arrow" width="46.000000" height="48.000000" viewBox="0 0 46 48" fill="none" xmlns="http://www.w3.org/2000/svg" xmlns:xlink="http://www.w3.org/1999/xlink">
	<g clip-path="url(#clip19_42)">
		<path id="path" d="M23 0C21.48 0 19.99 0.15 18.51 0.46C17.03 0.76 15.59 1.22 14.19 1.82C12.8 2.42 11.47 3.16 10.22 4.04C8.96 4.92 7.8 5.91 6.73 7.02C5.66 8.14 4.71 9.35 3.87 10.66C3.03 11.97 2.32 13.35 1.75 14.81C1.17 16.27 0.73 17.77 0.44 19.31C0.14 20.86 0 22.42 0 24C0 25.57 0.14 27.13 0.44 28.68C0.73 30.22 1.17 31.72 1.75 33.18C2.32 34.64 3.03 36.02 3.87 37.33C4.71 38.64 5.66 39.85 6.73 40.97C7.8 42.08 8.96 43.07 10.22 43.95C11.47 44.83 12.8 45.57 14.19 46.17C15.59 46.77 17.03 47.23 18.51 47.53C19.99 47.84 21.48 48 23 48C24.51 48 26 47.84 27.48 47.53C28.96 47.23 30.4 46.77 31.8 46.17C33.19 45.57 34.52 44.83 35.77 43.95C37.03 43.07 38.19 42.08 39.26 40.97C40.33 39.85 41.28 38.64 42.12 37.33C42.96 36.02 43.67 34.64 44.24 33.18C44.82 31.72 45.26 30.22 45.55 28.68C45.85 27.13 46 25.57 46 24C45.99 22.42 45.84 20.86 45.55 19.31C45.25 17.77 44.82 16.27 44.24 14.81C43.66 13.36 42.95 11.98 42.11 10.67C41.27 9.36 40.32 8.15 39.25 7.03C38.18 5.92 37.02 4.92 35.77 4.05C34.51 3.17 33.19 2.43 31.79 1.83C30.4 1.23 28.96 0.77 27.48 0.46C26 0.15 24.5 0 23 0ZM23 45.75C21.63 45.75 20.27 45.61 18.93 45.33C17.59 45.05 16.28 44.64 15.02 44.09C13.75 43.54 12.55 42.87 11.41 42.08C10.28 41.29 9.22 40.38 8.26 39.37C7.29 38.36 6.42 37.27 5.66 36.08C4.9 34.89 4.26 33.64 3.74 32.32C3.21 31 2.82 29.64 2.55 28.24C2.28 26.84 2.15 25.42 2.15 24C2.15 22.57 2.28 21.15 2.55 19.75C2.82 18.35 3.21 16.99 3.74 15.67C4.26 14.35 4.9 13.1 5.66 11.91C6.42 10.72 7.29 9.63 8.26 8.62C9.22 7.61 10.28 6.7 11.41 5.91C12.55 5.12 13.75 4.45 15.02 3.9C16.28 3.35 17.59 2.94 18.93 2.66C20.27 2.38 21.63 2.25 23 2.25C24.36 2.25 25.72 2.38 27.06 2.66C28.4 2.94 29.71 3.35 30.97 3.9C32.24 4.45 33.44 5.12 34.58 5.91C35.71 6.7 36.77 7.61 37.73 8.62C38.7 9.63 39.57 10.72 40.33 11.91C41.09 13.1 41.73 14.35 42.25 15.67C42.78 16.99 43.17 18.35 43.44 19.75C43.71 21.15 43.84 22.57 43.84 24C43.84 25.42 43.7 26.84 43.43 28.24C43.17 29.64 42.77 31 42.25 32.31C41.72 33.63 41.08 34.89 40.32 36.07C39.56 37.26 38.69 38.36 37.73 39.37C36.76 40.38 35.71 41.28 34.57 42.07C33.43 42.86 32.23 43.54 30.97 44.08C29.7 44.63 28.4 45.04 27.06 45.32C25.72 45.6 24.36 45.74 23 45.75Z" fill="#618641" fill-opacity="1.000000" fill-rule="nonzero"/>
		<path id="path" d="M20.88 13.45C20.67 13.24 20.42 13.14 20.13 13.15C19.84 13.15 19.59 13.26 19.38 13.48C19.18 13.69 19.07 13.95 19.07 14.25C19.06 14.56 19.16 14.82 19.36 15.04L27.94 24L19.36 32.95C19.13 33.17 19.02 33.43 19.02 33.75C19.01 34.07 19.11 34.34 19.33 34.57C19.55 34.79 19.81 34.9 20.11 34.9C20.42 34.89 20.67 34.77 20.88 34.54L30.23 24.79C30.44 24.57 30.54 24.31 30.54 24C30.54 23.68 30.44 23.42 30.23 23.2L20.88 13.45Z" fill="#618641" fill-opacity="1.000000" fill-rule="nonzero"/>
	</g>
  </symbol>

	<!-- double arrow (section planner)-->
	<symbol id="double_arrow" width="35.162308" height="35.181763" viewBox="0 0 35.1623 35.1818"  xmlns="http://www.w3.org/2000/svg" xmlns:xlink="http://www.w3.org/1999/xlink">
	<path id="path" d="M18.97 16.75L2.78 0.47C2.01 -0.19 1.27 -0.16 0.55 0.56C-0.16 1.28 -0.19 2.02 0.47 2.8L15.31 17.74L0.89 32.26C0.13 33.04 0.13 33.81 0.89 34.59C1.67 35.37 2.45 35.37 3.22 34.59L18.97 18.73C19.62 18.07 19.62 17.41 18.97 16.75Z"  fill-opacity="1.000000" fill-rule="nonzero"/>
	<path id="path" d="M34.67 16.75L18.48 0.47C17.71 -0.19 16.97 -0.16 16.25 0.56C15.54 1.28 15.51 2.02 16.17 2.8L31.01 17.74L16.59 32.26C15.83 33.04 15.83 33.81 16.59 34.59C17.36 35.36 18.13 35.36 18.9 34.59L34.67 18.73C35.32 18.07 35.32 17.41 34.67 16.75Z"  fill-opacity="1.000000" fill-rule="nonzero"/>
	</symbol>

<!-- logo icon (header/footer)-->
	<symbol id="logo_icon" width="57.664894" height="59.164307" viewBox="0 0 57.6649 59.1643" xmlns="http://www.w3.org/2000/svg" xmlns:xlink="http://www.w3.org/1999/xlink">
	<path id="path" d="M56.87 10.63L46.04 0.73C45.51 0.24 44.89 0 44.16 0C43.44 0 42.82 0.24 42.29 0.73L31.46 10.63C30.67 11.35 30.47 12.21 30.86 13.2C31.24 14.19 31.97 14.69 33.03 14.69L37.33 14.69C37.66 14.69 37.82 14.85 37.82 15.17L37.82 44.09C37.82 44.72 38.04 45.26 38.49 45.71C38.93 46.15 39.47 46.38 40.1 46.38L47.99 46.38C48.62 46.38 49.16 46.15 49.6 45.71C50.05 45.26 50.27 44.72 50.27 44.09L50.27 15.17C50.27 14.85 50.43 14.69 50.76 14.69L55.29 14.69C56.36 14.69 57.08 14.19 57.47 13.2C57.86 12.21 57.65 11.35 56.87 10.63Z" fill-rule="nonzero"/>
	<path id="path" d="M49.27 55.41L38.82 55.41C38.33 55.41 37.92 55.58 37.58 55.92C37.24 56.26 37.07 56.68 37.07 57.16C37.07 57.64 37.24 58.06 37.58 58.4C37.92 58.74 38.33 58.91 38.82 58.91L49.27 58.91C49.76 58.91 50.17 58.74 50.51 58.4C50.85 58.06 51.02 57.64 51.02 57.16C51.02 56.68 50.85 56.26 50.51 55.92C50.17 55.58 49.76 55.41 49.27 55.41Z"  fill-rule="nonzero"/>
	<path id="path" d="M49.27 49.88L38.82 49.88C38.33 49.88 37.92 50.05 37.58 50.39C37.24 50.74 37.07 51.15 37.07 51.63C37.07 52.11 37.24 52.53 37.58 52.87C37.92 53.21 38.33 53.38 38.82 53.38L49.27 53.38C49.76 53.38 50.17 53.21 50.51 52.87C50.85 52.53 51.02 52.11 51.02 51.63C51.02 51.15 50.85 50.74 50.51 50.39C50.17 50.05 49.76 49.88 49.27 49.88Z"  fill-rule="nonzero"/>
	<rect id="rect" y="35.482697" rx="2.464800" width="12.455100" height="23.681599" />
	<path id="path" d="M20.46 24.39L27.98 24.39C28.66 24.39 29.24 24.63 29.73 25.11C30.21 25.59 30.45 26.17 30.45 26.85L30.45 56.69C30.45 57.38 30.21 57.96 29.73 58.44C29.24 58.92 28.66 59.16 27.98 59.16L20.46 59.16C19.78 59.16 19.2 58.92 18.71 58.44C18.23 57.96 17.99 57.38 17.99 56.69L17.99 26.85C17.99 26.17 18.23 25.59 18.71 25.11C19.2 24.63 19.78 24.39 20.46 24.39Z" fill-rule="nonzero"/>
	</symbol>


<!-- double left arrow (section charts)-->
	<symbol id="double_left_arrow" width="37.162369" height="37.181885" viewBox="0 0 37.1624 37.1819" xmlns="http://www.w3.org/2000/svg" xmlns:xlink="http://www.w3.org/1999/xlink">
	<path id="arrow" d="M17.18 19.42L33.37 35.7C34.14 36.36 34.88 36.33 35.6 35.61C36.31 34.89 36.34 34.15 35.68 33.37L20.84 18.43L35.26 3.91C36.02 3.14 36.02 2.36 35.26 1.59C34.48 0.8 33.71 0.8 32.93 1.59L17.18 17.44C16.53 18.1 16.53 18.76 17.18 19.42Z" fill-opacity="1.000000" fill-rule="nonzero"/>
	<path id="arrow" d="M1.48 19.42L17.68 35.7C18.44 36.36 19.18 36.33 19.9 35.61C20.61 34.89 20.64 34.15 19.99 33.37L5.14 18.43L19.56 3.91C20.33 3.14 20.33 2.36 19.56 1.59C18.79 0.81 18.02 0.81 17.25 1.59L1.48 17.44C0.83 18.1 0.83 18.76 1.48 19.42Z"  fill-opacity="1.000000" fill-rule="nonzero"/>
	</symbol>


	<!-- double right arrow (section charts)-->
	<symbol id="double_right_arrow" width="37.162354" height="37.181885" viewBox="0 0 37.1624 37.1819"  xmlns="http://www.w3.org/2000/svg" xmlns:xlink="http://www.w3.org/1999/xlink">
	<path id="arrow" d="M19.97 17.75L3.78 1.47C3.01 0.81 2.27 0.84 1.55 1.56C0.84 2.28 0.81 3.02 1.47 3.8L16.31 18.74L1.89 33.26C1.13 34.04 1.13 34.81 1.89 35.59C2.67 36.37 3.45 36.37 4.22 35.59L19.97 19.73C20.62 19.07 20.62 18.41 19.97 17.75Z" fill-opacity="1.000000" fill-rule="nonzero"/>
	<path id="arrow" d="M35.67 17.75L19.48 1.47C18.71 0.81 17.97 0.84 17.25 1.56C16.54 2.28 16.51 3.02 17.17 3.8L32.01 18.74L17.59 33.26C16.83 34.04 16.83 34.81 17.59 35.59C18.36 36.36 19.13 36.36 19.9 35.59L35.67 19.73C36.32 19.07 36.32 18.41 35.67 17.75Z" fill-opacity="1.000000" fill-rule="nonzero"/>
	</symbol>

<!-- telegram icon (footer) -->
	<symbol id="tg" width="40.000000" height="40.000000" viewBox="0 0 40 40"  xmlns="http://www.w3.org/2000/svg" xmlns:xlink="http://www.w3.org/1999/xlink">
	<path id="path" d="M15.04 37.58L15.66 26.39L32.71 8.09C33.46 7.27 32.55 6.87 31.55 7.58L10.52 23.43L1.42 19.99C-0.54 19.33 -0.56 17.71 1.86 16.55L37.3 0.26C38.92 -0.62 40.48 0.73 39.86 3.7L33.82 37.58C33.4 39.98 32.18 40.56 30.49 39.45L21.3 31.36L16.89 36.46C16.37 37.07 15.95 37.58 15.04 37.58Z"  fill-opacity="1.000000" fill-rule="nonzero"/>
</symbol>

<!-- vk icon (footer) -->
<symbol id="vk" width="60.000000" height="60.000000" viewBox="0 0 60 60"  xmlns="http://www.w3.org/2000/svg" xmlns:xlink="http://www.w3.org/1999/xlink">
	<path id="path" d="M60 0L60 60L0 60L0 0L60 0ZM31.48 58.14L31.22 58.24C31.2 58.23 30.96 58.14 30.95 58.16L30.9 59.25L31.2 59.52L31.52 59.34L31.48 58.14ZM32.14 57.86L31.48 58.14L31.52 59.34L32.19 59.5L32.14 57.86ZM30.35 57.86L30.18 59.45L30.9 59.25L30.95 58.16L30.35 57.86Z" fill-opacity="0" fill-rule="evenodd"/>
	<path id="path" d="M17.5 7.5C14.73 7.5 12.38 8.47 10.42 10.42C8.47 12.38 7.5 14.73 7.5 17.5L7.5 42.5C7.5 45.26 8.47 47.61 10.42 49.57C12.38 51.52 14.73 52.5 17.5 52.5L42.5 52.5C45.26 52.5 47.61 51.52 49.57 49.57C51.52 47.61 52.5 45.26 52.5 42.5L52.5 17.5C52.5 14.73 51.52 12.38 49.57 10.42C47.61 8.47 45.26 7.5 42.5 7.5L17.5 7.5ZM43.33 25.13C44.25 23.75 44.02 22.59 42.63 21.67C41.25 20.74 40.09 20.97 39.16 22.36C38.28 23.53 37.35 24.66 36.27 25.66C35.01 26.82 33.74 27.69 32.5 28.2L32.48 23.45C32.3 21.98 31.48 21.25 30 21.25C28.64 21.32 27.5 22.32 27.5 23.75L27.5 34.68C22.63 33.33 20 28.6 20 23.75C20 22.08 19.16 21.25 17.5 21.25C15.83 21.25 15 22.08 15 23.75C15 32.83 21.27 40 30 40C31.66 40 32.5 39.16 32.5 37.5L32.5 33.59C35.83 33.85 39.06 36.21 40.26 38.61C40.56 39.25 41.04 39.69 41.7 39.92C42.37 40.16 43.02 40.12 43.65 39.8C44.28 39.48 44.7 38.99 44.91 38.32C45.13 37.65 45.06 37 44.73 36.38C43.54 33.99 41.31 31.75 38.56 30.29C38.93 29.99 39.3 29.66 39.66 29.33C41.04 28.07 42.26 26.67 43.33 25.13Z"  fill-opacity="1.000000" fill-rule="evenodd"/>
</symbol>

<!-- checkbox icon (form registration / budget) -->
<symbol id="checkbox" width="35.000000" height="35.000000" viewBox="0 0 35 35" fill="none" xmlns="http://www.w3.org/2000/svg" xmlns:xlink="http://www.w3.org/1999/xlink">
	<g clip-path="url(#clip20_14)">
		<path id="path" d="M27.7 0L7.29 0C6.32 0 5.39 0.18 4.5 0.55C3.6 0.92 2.82 1.45 2.13 2.13C1.45 2.82 0.92 3.6 0.55 4.5C0.18 5.39 0 6.32 0 7.29L0 27.7C0 28.67 0.18 29.6 0.55 30.49C0.92 31.39 1.45 32.17 2.13 32.86C2.82 33.54 3.6 34.07 4.5 34.44C5.39 34.81 6.32 34.99 7.29 35L27.7 35C28.67 34.99 29.6 34.81 30.49 34.44C31.39 34.07 32.17 33.54 32.86 32.86C33.54 32.17 34.07 31.39 34.44 30.49C34.81 29.6 34.99 28.67 35 27.7L35 7.29C34.99 6.32 34.81 5.39 34.44 4.5C34.07 3.6 33.54 2.82 32.86 2.13C32.17 1.45 31.39 0.92 30.49 0.55C29.6 0.18 28.67 0 27.7 0ZM32.08 27.7C32.08 28.91 31.65 29.94 30.8 30.8C29.94 31.65 28.91 32.08 27.7 32.08L7.29 32.08C6.08 32.08 5.05 31.65 4.19 30.8C3.34 29.94 2.91 28.91 2.91 27.7L2.91 7.29C2.91 6.08 3.34 5.05 4.19 4.19C5.05 3.34 6.08 2.91 7.29 2.91L27.7 2.91C28.91 2.91 29.94 3.34 30.8 4.19C31.65 5.05 32.08 6.08 32.08 7.29L32.08 27.7Z" fill="#3E92C0" fill-opacity="1.000000" fill-rule="nonzero"/>
		<path id="path" d="M13.61 23.21L7.89 17.5C7.2 16.81 6.52 16.81 5.83 17.5C5.14 18.18 5.14 18.87 5.83 19.56L11.54 25.27C12.11 25.84 12.8 26.13 13.61 26.13C14.41 26.13 15.1 25.84 15.67 25.27L29.16 11.78C29.85 11.09 29.85 10.41 29.16 9.72C28.47 9.03 27.79 9.03 27.1 9.72L13.61 23.21Z" fill="#3E92C0" fill-opacity="1.000000" fill-rule="nonzero"/>
		<path id="path" d="M7.89 17.5C7.2 16.81 6.52 16.81 5.83 17.5C5.14 18.18 5.14 18.87 5.83 19.56L11.54 25.27C12.11 25.84 12.8 26.13 13.61 26.13C14.41 26.13 15.1 25.84 15.67 25.27L29.16 11.78C29.85 11.09 29.85 10.41 29.16 9.72C28.47 9.03 27.79 9.03 27.1 9.72L13.61 23.21L7.89 17.5Z" stroke="#3E92C0" stroke-opacity="1.000000" stroke-width="3.000000"/>
	</g>
	</symbol>

<!-- button close (modal) -->
	<symbol id="btn_close" width="70.000000" height="70.000000" viewBox="0 0 70 70" fill="none" xmlns="http://www.w3.org/2000/svg" xmlns:xlink="http://www.w3.org/1999/xlink">
	<g clip-path="url(#clip24_269)">
		<path id="path" d="M54.67 11.36L58.62 15.31C58.62 15.31 58.63 15.32 58.63 15.32L38.95 35L58.62 54.66C58.62 54.66 58.63 54.67 58.63 54.67L54.68 58.62C54.68 58.62 54.67 58.63 54.67 58.63L35 38.95L15.33 58.62C15.33 58.62 15.32 58.63 15.32 58.63L11.37 54.68C11.37 54.68 11.36 54.67 11.36 54.67L31.04 35L11.37 15.33C11.37 15.33 11.36 15.32 11.36 15.32L15.31 11.37C15.31 11.37 15.32 11.36 15.32 11.36L35 31.04L54.66 11.37C54.66 11.37 54.67 11.36 54.67 11.36Z" fill="#333332" fill-opacity="0.528736" fill-rule="evenodd"/>
	</g>
	</symbol>

<!-- button update (todo list / budget) -->
	<symbol id="btn_update" width="52.980225" height="53.051025" viewBox="0 0 52.9802 53.051" fill="none" xmlns="http://www.w3.org/2000/svg" xmlns:xlink="http://www.w3.org/1999/xlink">
	<path id="path" d="M46.62 37.16L46.62 37.14C46.99 36.38 47.87 36.09 48.62 36.46C49.38 36.83 49.68 37.71 49.31 38.47L49.28 38.48L46.62 37.16ZM48.7 14L48.73 14.01C49.1 14.76 48.8 15.64 48.05 16.02C47.3 16.39 46.41 16.09 46.04 15.34L46.05 15.31L48.7 14Z" fill="#FFFDFD" fill-opacity="1.000000" fill-rule="nonzero"/>
	<path id="path" d="M47.96 37.8C45.55 42.68 41.93 46.36 37.09 48.85C32.29 51.32 27.23 52.09 21.91 51.16C16.57 50.23 12.05 47.78 8.34 43.83C4.6 39.85 2.39 35.14 1.71 29.72C1.02 24.29 1.99 19.17 4.61 14.36C7.21 9.58 10.98 6.05 15.9 3.76C20.81 1.49 25.89 0.93 31.17 2.07C36.31 3.19 40.52 5.72 44 9.73C44.42 10.17 46.04 11.96 47.38 14.67" stroke="#FFFDFD" stroke-opacity="1.000000" stroke-width="3.000000" stroke-linejoin="round" stroke-linecap="round"/>
	<path id="path" d="M34.77 16.35L34.74 16.37C33.92 16.22 33.39 15.45 33.53 14.63C33.68 13.8 34.45 13.27 35.28 13.42L35.29 13.44L34.77 16.35ZM50.01 2.93L50 2.91C50.14 2.08 50.9 1.54 51.73 1.68C52.56 1.83 53.1 2.59 52.95 3.42L52.93 3.43L50.01 2.93Z" fill="#FFFDFD" fill-opacity="1.000000" fill-rule="nonzero"/>
	<path id="path" d="M35.01 14.89L49 17.41L51.47 3.16" stroke="#FFFDFD" stroke-opacity="1.000000" stroke-width="3.000000" stroke-linejoin="round" stroke-linecap="round"/>
	</symbol>

<!-- button save (todo list / budget) -->
	<symbol id="btn_save" width="49.965332" height="50.000000" viewBox="0 0 49.9653 50" fill="none" xmlns="http://www.w3.org/2000/svg" xmlns:xlink="http://www.w3.org/1999/xlink">
	<path id="save icon" d="M6.24 3.12C4.16 3.12 3.12 4.16 3.12 6.25L3.12 43.75C3.12 45.83 4.16 46.87 6.24 46.87L43.71 46.87C45.8 46.87 46.84 45.83 46.84 43.75L46.84 6.25C46.84 4.16 45.8 3.12 43.71 3.12L29.66 3.12C27.58 3.12 26.54 4.16 26.54 6.25L26.54 29.04L34.8 20.76C35.54 20.03 36.28 20.03 37.01 20.76C37.75 21.5 37.75 22.24 37.01 22.98L26.08 33.91C25.35 34.65 24.61 34.65 23.87 33.91L12.94 22.98C12.21 22.24 12.21 21.5 12.94 20.76C13.68 20.03 14.42 20.03 15.15 20.76L23.42 29.04L23.42 6.25C23.42 4.52 24.03 3.05 25.25 1.83C26.47 0.61 27.94 0 29.66 0L43.71 0C45.44 0 46.91 0.61 48.13 1.83C49.35 3.05 49.96 4.52 49.96 6.25L49.96 43.75C49.96 45.47 49.35 46.94 48.13 48.16C46.91 49.38 45.44 50 43.71 50L6.24 50C4.52 50 3.04 49.38 1.82 48.16C0.6 46.94 0 45.47 0 43.75L0 6.25C0 4.52 0.6 3.05 1.82 1.83C3.04 0.61 4.52 0 6.24 0L14.05 0C15.09 0 15.61 0.52 15.61 1.56C15.61 2.6 15.09 3.12 14.05 3.12L6.24 3.12Z" fill="#FFFDFD" fill-opacity="1.000000" fill-rule="nonzero"/>
	</symbol>

<!-- button clear (todo list / budget) -->
	<symbol id="btn_clear" width="49.965332" height="50.000000" viewBox="0 0 49.9653 50" fill="none" xmlns="http://www.w3.org/2000/svg" xmlns:xlink="http://www.w3.org/1999/xlink">
	<path id="XMLID_12_" d="M15.72 2.38L34.26 2.38C35 2.38 35.6 1.84 35.6 1.19C35.6 0.53 35 0 34.26 0L15.72 0C14.98 0 14.37 0.53 14.37 1.19C14.37 1.84 14.97 2.38 15.72 2.38Z" fill="#FFFDFD" fill-opacity="1.000000" fill-rule="nonzero"/>
	<path id="XMLID_13_" d="M28.39 21.79C27.65 21.79 27.04 22.33 27.04 22.98L27.04 42.6C27.04 43.26 27.65 43.79 28.39 43.79C29.13 43.79 29.73 43.26 29.73 42.6L29.73 22.98C29.73 22.33 29.13 21.79 28.39 21.79Z" fill="#FFFDFD" fill-opacity="1.000000" fill-rule="nonzero"/>
	<path id="XMLID_14_" d="M35.2 21.79C34.46 21.79 33.85 22.33 33.85 22.98L33.85 42.6C33.85 43.26 34.46 43.79 35.2 43.79C35.93 43.79 36.54 43.26 36.54 42.6L36.54 22.98C36.54 22.33 35.95 21.79 35.2 21.79Z" fill="#FFFDFD" fill-opacity="1.000000" fill-rule="nonzero"/>
	<path id="XMLID_15_" d="M21.58 21.79C20.84 21.79 20.23 22.33 20.23 22.98L20.23 42.6C20.23 43.26 20.84 43.79 21.58 43.79C22.32 43.79 22.92 43.26 22.92 42.6L22.92 22.98C22.92 22.33 22.32 21.79 21.58 21.79Z" fill="#FFFDFD" fill-opacity="1.000000" fill-rule="nonzero"/>
	<path id="XMLID_16_" d="M14.77 21.79C14.03 21.79 13.43 22.33 13.43 22.98L13.43 42.6C13.43 43.26 14.03 43.79 14.77 43.79C15.51 43.79 16.11 43.26 16.11 42.6L16.11 22.98C16.11 22.33 15.51 21.79 14.77 21.79Z" fill="#FFFDFD" fill-opacity="1.000000" fill-rule="nonzero"/>
	<path id="XMLID_19_" d="M48.63 5.02L45.26 5.02L4.7 5.02L1.34 5.02C0.6 5.02 0 5.56 0 6.22C0 6.87 0.6 7.41 1.34 7.41L3.49 7.41L4.5 16.93C4.5 16.94 4.5 16.96 4.5 16.97L7.91 48.92C7.97 49.54 8.54 50 9.24 50L40.72 50C41.41 50 41.98 49.53 42.05 48.92L46.47 7.41L48.62 7.41C49.35 7.41 49.96 6.87 49.96 6.22C49.97 5.56 49.38 5.02 48.63 5.02ZM39.5 47.61L10.46 47.61L7.31 18.02L42.66 18.02L39.5 47.61ZM42.91 15.64L7.06 15.64L6.18 7.41L43.78 7.41L42.91 15.64Z" fill="#FFFDFD" fill-opacity="1.000000" fill-rule="nonzero"/>
	</symbol>

<!-- slider right arrow (budget) -->
	<symbol id="circle_arrow_right" width="64.000000" height="64.000000" viewBox="0 0 64 64" fill="none" xmlns="http://www.w3.org/2000/svg" xmlns:xlink="http://www.w3.org/1999/xlink">
	<path id="path" d="M32 0C29.89 0 27.81 0.2 25.75 0.61C23.69 1.02 21.69 1.63 19.75 2.43C17.81 3.23 15.96 4.22 14.22 5.39C12.47 6.56 10.85 7.88 9.37 9.37C7.88 10.85 6.56 12.47 5.39 14.22C4.22 15.96 3.23 17.81 2.43 19.75C1.63 21.69 1.02 23.69 0.61 25.75C0.2 27.81 0 29.89 0 32C0 34.1 0.2 36.18 0.61 38.24C1.02 40.3 1.63 42.3 2.43 44.24C3.23 46.18 4.22 48.03 5.39 49.77C6.56 51.52 7.88 53.14 9.37 54.62C10.85 56.11 12.47 57.43 14.22 58.6C15.96 59.77 17.81 60.76 19.75 61.56C21.69 62.36 23.69 62.97 25.75 63.38C27.81 63.79 29.89 64 32 64C34.1 64 36.18 63.79 38.24 63.38C40.3 62.97 42.3 62.36 44.24 61.56C46.18 60.76 48.03 59.77 49.77 58.6C51.52 57.43 53.14 56.11 54.62 54.62C56.11 53.14 57.43 51.52 58.6 49.77C59.77 48.03 60.76 46.18 61.56 44.24C62.36 42.3 62.97 40.3 63.38 38.24C63.79 36.18 64 34.1 64 32C64 29.89 63.79 27.81 63.38 25.75C62.97 23.69 62.36 21.69 61.56 19.75C60.76 17.81 59.77 15.96 58.6 14.22C57.43 12.47 56.11 10.85 54.62 9.37C53.14 7.88 51.52 6.56 49.77 5.39C48.03 4.22 46.18 3.23 44.24 2.43C42.3 1.63 40.3 1.02 38.24 0.61C36.18 0.2 34.1 0 32 0Z" fill="#262424" fill-opacity="0.533333" fill-rule="nonzero"/>
	<path id="path" d="M25.52 50.69L25.52 50.72C25.12 51.1 24.49 51.09 24.11 50.69C23.72 50.28 23.73 49.66 24.14 49.27L24.17 49.27L25.52 50.69ZM24.17 14.72L24.14 14.72C23.73 14.33 23.72 13.71 24.11 13.3C24.49 12.9 25.12 12.89 25.52 13.27L25.52 13.3L24.17 14.72Z" fill="#000000" fill-opacity="0" fill-rule="nonzero"/>
	<path id="path" d="M24.83 50L42.52 33.1C42.84 32.8 43 32.43 43 32C43 31.57 42.84 31.2 42.52 30.91L24.83 14" stroke="#FFFFFF" stroke-opacity="1.000000" stroke-width="2.000000" stroke-linecap="round"/>
	</symbol>

<!-- slider left arrow (budget) -->
	<symbol id="circle_arrow_left" width="64.000000" height="64.000000" viewBox="0 0 64 64" fill="none" xmlns="http://www.w3.org/2000/svg" xmlns:xlink="http://www.w3.org/1999/xlink">
	<path id="path" d="M32 0C29.89 0 27.81 0.2 25.75 0.61C23.69 1.02 21.69 1.63 19.75 2.43C17.81 3.23 15.96 4.22 14.22 5.39C12.47 6.56 10.85 7.88 9.37 9.37C7.88 10.85 6.56 12.47 5.39 14.22C4.22 15.96 3.23 17.81 2.43 19.75C1.63 21.69 1.02 23.69 0.61 25.75C0.2 27.81 0 29.89 0 32C0 34.1 0.2 36.18 0.61 38.24C1.02 40.3 1.63 42.3 2.43 44.24C3.23 46.18 4.22 48.03 5.39 49.77C6.56 51.52 7.88 53.14 9.37 54.62C10.85 56.11 12.47 57.43 14.22 58.6C15.96 59.77 17.81 60.76 19.75 61.56C21.69 62.36 23.69 62.97 25.75 63.38C27.81 63.79 29.89 64 32 64C34.1 64 36.18 63.79 38.24 63.38C40.3 62.97 42.3 62.36 44.24 61.56C46.18 60.76 48.03 59.77 49.77 58.6C51.52 57.43 53.14 56.11 54.62 54.62C56.11 53.14 57.43 51.52 58.6 49.77C59.77 48.03 60.76 46.18 61.56 44.24C62.36 42.3 62.97 40.3 63.38 38.24C63.79 36.18 64 34.1 64 32C64 29.89 63.79 27.81 63.38 25.75C62.97 23.69 62.36 21.69 61.56 19.75C60.76 17.81 59.77 15.96 58.6 14.22C57.43 12.47 56.11 10.85 54.62 9.37C53.14 7.88 51.52 6.56 49.77 5.39C48.03 4.22 46.18 3.23 44.24 2.43C42.3 1.63 40.3 1.02 38.24 0.61C36.18 0.2 34.1 0 32 0Z" fill="#262424" fill-opacity="0.533333" fill-rule="nonzero"/>
	<path id="path" d="M36.3 13.3L36.3 13.27C36.71 12.89 37.33 12.9 37.72 13.3C38.1 13.71 38.09 14.33 37.69 14.72L37.66 14.72L36.3 13.3ZM37.66 49.27L37.69 49.27C38.09 49.66 38.1 50.28 37.72 50.69C37.33 51.09 36.71 51.1 36.3 50.72L36.3 50.69L37.66 49.27Z" fill="#000000" fill-opacity="0" fill-rule="nonzero"/>
	<path id="path" d="M37 14L19.31 30.89C18.99 31.19 18.83 31.56 18.83 31.99C18.83 32.42 18.99 32.79 19.31 33.08L37 50" stroke="#FFFFFF" stroke-opacity="1.000000" stroke-width="2.000000" stroke-linecap="round"/>
	</symbol>
</svg>