<svg width="45.485596" height="48.000000" viewBox="0 0 45.4856 48" fill="none" xmlns="http://www.w3.org/2000/svg" xmlns:xlink="http://www.w3.org/1999/xlink">
	<desc>
			Created with Pixso.
	</desc>
	<defs/>
	<path id="path" d="M22.74 0C21.24 0 19.77 0.15 18.3 0.46C16.84 0.76 15.41 1.22 14.03 1.82C12.65 2.42 11.34 3.16 10.1 4.04C8.86 4.92 7.71 5.91 6.66 7.02C5.6 8.14 4.66 9.35 3.83 10.66C3 11.97 2.3 13.35 1.73 14.81C1.15 16.27 0.72 17.77 0.43 19.31C0.14 20.86 0 22.42 0 24C0 25.57 0.14 27.13 0.43 28.68C0.72 30.22 1.15 31.72 1.73 33.18C2.3 34.64 3 36.02 3.83 37.33C4.66 38.64 5.6 39.85 6.66 40.97C7.71 42.08 8.86 43.07 10.1 43.95C11.34 44.83 12.65 45.57 14.03 46.17C15.41 46.77 16.84 47.23 18.3 47.53C19.77 47.84 21.24 48 22.74 48C24.23 48 25.71 47.84 27.17 47.53C28.64 47.23 30.06 46.77 31.44 46.17C32.82 45.57 34.13 44.83 35.37 43.95C36.61 43.07 37.76 42.08 38.82 40.97C39.88 39.85 40.82 38.64 41.65 37.33C42.48 36.02 43.18 34.64 43.75 33.18C44.32 31.72 44.75 30.22 45.04 28.68C45.34 27.13 45.48 25.57 45.48 24C45.48 22.42 45.34 20.86 45.04 19.31C44.75 17.77 44.32 16.27 43.75 14.81C43.18 13.35 42.48 11.97 41.65 10.66C40.82 9.35 39.88 8.14 38.82 7.02C37.76 5.91 36.61 4.92 35.37 4.04C34.13 3.16 32.82 2.42 31.44 1.82C30.06 1.22 28.64 0.76 27.17 0.46C25.71 0.15 24.23 0 22.74 0ZM22.74 46C21.37 46 20.01 45.85 18.67 45.57C17.33 45.29 16.02 44.87 14.76 44.32C13.5 43.77 12.29 43.09 11.16 42.29C10.02 41.48 8.96 40.57 8 39.55C7.03 38.53 6.16 37.42 5.4 36.22C4.64 35.02 4 33.75 3.48 32.41C2.95 31.08 2.56 29.7 2.29 28.29C2.02 26.87 1.89 25.44 1.89 24C1.89 22.55 2.02 21.12 2.29 19.7C2.56 18.29 2.95 16.91 3.48 15.58C4 14.24 4.64 12.97 5.4 11.77C6.16 10.57 7.03 9.46 8 8.44C8.96 7.42 10.02 6.51 11.16 5.7C12.29 4.9 13.5 4.22 14.76 3.67C16.02 3.12 17.33 2.7 18.67 2.42C20.01 2.14 21.37 2 22.74 2C24.11 2 25.46 2.14 26.81 2.42C28.15 2.7 29.45 3.12 30.72 3.67C31.98 4.22 33.18 4.9 34.32 5.7C35.46 6.51 36.51 7.42 37.48 8.44C38.45 9.46 39.31 10.57 40.07 11.77C40.83 12.97 41.47 14.24 42 15.58C42.52 16.91 42.92 18.29 43.18 19.7C43.45 21.12 43.59 22.55 43.59 24C43.59 25.44 43.45 26.87 43.18 28.29C42.92 29.7 42.52 31.08 42 32.41C41.47 33.75 40.83 35.02 40.07 36.22C39.31 37.42 38.45 38.53 37.48 39.55C36.51 40.57 35.46 41.48 34.32 42.29C33.18 43.09 31.98 43.77 30.72 44.32C29.45 44.87 28.15 45.29 26.81 45.57C25.46 45.85 24.11 46 22.74 46Z" fill="#000000" fill-opacity="1.000000" fill-rule="nonzero"/>
	<path id="path" d="M22.74 6C21.62 6 20.51 6.11 19.41 6.34C18.31 6.57 17.25 6.91 16.21 7.37C15.18 7.82 14.19 8.37 13.26 9.03C12.33 9.69 11.47 10.43 10.68 11.27C9.88 12.1 9.18 13.01 8.56 13.99C7.93 14.98 7.41 16.01 6.98 17.11C6.55 18.2 6.23 19.32 6.01 20.48C5.79 21.64 5.68 22.81 5.68 24C5.68 25.18 5.79 26.35 6.01 27.51C6.23 28.67 6.55 29.79 6.98 30.88C7.41 31.98 7.93 33.01 8.56 34C9.18 34.98 9.88 35.89 10.68 36.72C11.47 37.56 12.33 38.3 13.26 38.96C14.19 39.62 15.18 40.17 16.21 40.62C17.25 41.08 18.31 41.42 19.41 41.65C20.51 41.88 21.62 42 22.74 42C23.86 42 24.97 41.88 26.07 41.65C27.16 41.42 28.23 41.08 29.27 40.62C30.3 40.17 31.28 39.62 32.21 38.96C33.15 38.3 34.01 37.56 34.8 36.72C35.59 35.89 36.3 34.98 36.92 34C37.54 33.01 38.07 31.98 38.5 30.88C38.93 29.79 39.25 28.67 39.47 27.51C39.69 26.35 39.8 25.18 39.8 24C39.8 22.81 39.69 21.64 39.47 20.48C39.25 19.32 38.93 18.2 38.5 17.11C38.07 16.01 37.54 14.98 36.92 13.99C36.3 13.01 35.59 12.1 34.8 11.27C34.01 10.43 33.15 9.69 32.21 9.03C31.28 8.37 30.3 7.82 29.27 7.37C28.23 6.91 27.16 6.57 26.07 6.34C24.97 6.11 23.86 6 22.74 6ZM23.69 39.95L23.69 35L21.79 35L21.79 39.95C19.95 39.82 18.19 39.36 16.51 38.56C14.83 37.76 13.34 36.67 12.03 35.29C10.73 33.92 9.7 32.34 8.94 30.57C8.18 28.79 7.74 26.94 7.62 25L13.26 25L13.26 23L7.62 23C7.74 21.05 8.18 19.2 8.94 17.42C9.7 15.65 10.73 14.07 12.03 12.7C13.34 11.32 14.83 10.23 16.51 9.43C18.19 8.63 19.95 8.17 21.79 8.05L21.79 13L23.69 13L23.69 8.05C25.53 8.17 27.29 8.63 28.97 9.43C30.65 10.23 32.14 11.32 33.44 12.7C34.75 14.07 35.78 15.65 36.54 17.42C37.3 19.2 37.74 21.05 37.85 23L32.21 23L32.21 25L37.85 25C37.74 26.94 37.3 28.79 36.54 30.57C35.78 32.34 34.75 33.92 33.44 35.29C32.14 36.67 30.65 37.76 28.97 38.56C27.29 39.36 25.53 39.82 23.69 39.95Z" fill="#000000" fill-opacity="1.000000" fill-rule="nonzero"/>
	<path id="path" d="M23.69 17L21.79 17L21.79 24C21.79 24.27 21.88 24.51 22.07 24.71L27.75 30.71L29.09 29.3L23.69 23.59L23.69 17Z" fill="#000000" fill-opacity="1.000000" fill-rule="nonzero"/>
</svg>
