<svg width="57.664894" height="59.164307" viewBox="0 0 57.6649 59.1643" fill="none" xmlns="http://www.w3.org/2000/svg" xmlns:xlink="http://www.w3.org/1999/xlink">
	<desc>
			Created with Pixso.
	</desc>
	<defs/>
	<path id="path" d="M56.87 10.63L46.04 0.73C45.51 0.24 44.89 0 44.16 0C43.44 0 42.82 0.24 42.29 0.73L31.46 10.63C30.67 11.35 30.47 12.21 30.86 13.2C31.24 14.19 31.97 14.69 33.03 14.69L37.33 14.69C37.66 14.69 37.82 14.85 37.82 15.17L37.82 44.09C37.82 44.72 38.04 45.26 38.49 45.71C38.93 46.15 39.47 46.38 40.1 46.38L47.99 46.38C48.62 46.38 49.16 46.15 49.6 45.71C50.05 45.26 50.27 44.72 50.27 44.09L50.27 15.17C50.27 14.85 50.43 14.69 50.76 14.69L55.29 14.69C56.36 14.69 57.08 14.19 57.47 13.2C57.86 12.21 57.65 11.35 56.87 10.63Z" fill="#000000" fill-opacity="0.800000" fill-rule="nonzero"/>
	<path id="path" d="M49.27 55.41L38.82 55.41C38.33 55.41 37.92 55.58 37.58 55.92C37.24 56.26 37.07 56.68 37.07 57.16C37.07 57.64 37.24 58.06 37.58 58.4C37.92 58.74 38.33 58.91 38.82 58.91L49.27 58.91C49.76 58.91 50.17 58.74 50.51 58.4C50.85 58.06 51.02 57.64 51.02 57.16C51.02 56.68 50.85 56.26 50.51 55.92C50.17 55.58 49.76 55.41 49.27 55.41Z" fill="#000000" fill-opacity="0.800000" fill-rule="nonzero"/>
	<path id="path" d="M49.27 49.88L38.82 49.88C38.33 49.88 37.92 50.05 37.58 50.39C37.24 50.74 37.07 51.15 37.07 51.63C37.07 52.11 37.24 52.53 37.58 52.87C37.92 53.21 38.33 53.38 38.82 53.38L49.27 53.38C49.76 53.38 50.17 53.21 50.51 52.87C50.85 52.53 51.02 52.11 51.02 51.63C51.02 51.15 50.85 50.74 50.51 50.39C50.17 50.05 49.76 49.88 49.27 49.88Z" fill="#000000" fill-opacity="0.800000" fill-rule="nonzero"/>
	<rect id="rect" y="35.482697" rx="2.464800" width="12.455100" height="23.681599" fill="#000000" fill-opacity="0.800000"/>
	<path id="path" d="M20.46 24.39L27.98 24.39C28.66 24.39 29.24 24.63 29.73 25.11C30.21 25.59 30.45 26.17 30.45 26.85L30.45 56.69C30.45 57.38 30.21 57.96 29.73 58.44C29.24 58.92 28.66 59.16 27.98 59.16L20.46 59.16C19.78 59.16 19.2 58.92 18.71 58.44C18.23 57.96 17.99 57.38 17.99 56.69L17.99 26.85C17.99 26.17 18.23 25.59 18.71 25.11C19.2 24.63 19.78 24.39 20.46 24.39Z" fill="#000000" fill-opacity="0.800000" fill-rule="nonzero"/>
</svg>
